<?xml version="1.0" encoding="utf-8"?>
<!-- Generator: Adobe Illustrator 23.0.1, SVG Export Plug-In . SVG Version: 6.00 Build 0)  -->
<svg version="1.1" id="Layer_1" xmlns="http://www.w3.org/2000/svg" xmlns:xlink="http://www.w3.org/1999/xlink" x="0px" y="0px"
	 viewBox="0 0 384.1 384" style="enable-background:new 0 0 384.1 384;" xml:space="preserve">
<style type="text/css">
	.st0{fill:#FFFFFF;}
</style>
<g>
	<path class="st0" d="M384.1,190.5c0,53.5,0,107,0,160.5c0,9.1-3.1,17.1-9.5,23.7c-5.9,6.1-13.1,9.2-21.6,9.2
		c-39.1,0-78.2,0-117.3,0c-67.3,0-134.5-0.1-201.8,0.1c-15.4,0-29.6-11.5-32.8-26.2c-0.6-2.6-0.8-5.4-0.8-8.1c0-47.7,0-95.3,0-143
		C0.1,148.4,0.3,90.1,0,31.8C-0.1,13.1,14.4,1.7,29,0.3C30.9,0.1,32.8,0,34.7,0c105.9,0,211.8,0,317.7,0c5.9,0,11.6,1,16.8,4
		c9.4,5.4,14.2,13.7,14.8,24.5c0.1,1.4,0,2.9,0,4.3C384.1,85.4,384.1,138,384.1,190.5z M320.2,319.9c0-1.1,0-2,0-2.9
		c0-30.8,0-61.6,0-92.4c0-6.3-0.3-12.6-0.9-18.9c-0.9-9.7-3.3-19-7.6-27.8c-7-14.4-18-24.5-33.4-29.5c-10-3.2-20.2-3.9-30.6-2.6
		c-11.1,1.4-20.9,5.8-29.1,13.5c-3.6,3.4-6.8,7.2-9.7,11.3c-0.4,0.6-0.9,1.2-1.4,1.8c-0.2,0-0.3-0.1-0.5-0.1c0-7.6,0-15.2,0-22.9
		c-18.4,0-36.5,0-54.6,0c-0.5,3.2-0.3,168.9,0.1,170.6c18.1,0,36.2,0,54.5,0c0-1.1,0-2.1,0-3c0-31.1,0-62.2,0-93.3
		c0-1.3,0.1-2.6,0.1-3.8c0.1-7.7,2.7-14.4,7.6-20.2c7.3-8.7,16.7-11.7,27.7-10.2c8.7,1.2,14.8,6.1,18.4,14c0.9,2,1.7,4.2,2.3,6.3
		c1.6,5.7,2,11.5,2,17.3c0,30,0,60,0,90c0,1,0,2,0.1,3C283.7,319.9,301.8,319.9,320.2,319.9z M119,149.4c-2.6-0.5-52.9-0.4-54.7,0.1
		c0,56.7,0,113.5,0,170.2c2.6,0.5,52.9,0.4,54.7-0.1C119,262.9,119,206.1,119,149.4z M93.6,123c0.2,0,0.5,0,0.7,0
		c1.2-0.1,2.4-0.1,3.6-0.3c11-1.5,19.1-7.1,23.1-17.7c3.5-9,2.7-17.9-1.6-26.4c-2.4-4.8-6-8.6-10.8-10.9
		c-10.7-5.2-21.4-5.1-31.6,1.1C68.5,74,64.8,82.3,64.2,92.1C63.3,109.8,76.2,123.3,93.6,123z"/>
</g>
</svg>
