<?xml version="1.0" encoding="utf-8"?>
<!-- Generator: Adobe Illustrator 23.0.1, SVG Export Plug-In . SVG Version: 6.00 Build 0)  -->
<svg version="1.1" id="Layer_1" xmlns="http://www.w3.org/2000/svg" xmlns:xlink="http://www.w3.org/1999/xlink" x="0px" y="0px"
	 viewBox="0 0 657 657" style="enable-background:new 0 0 657 657;" xml:space="preserve">
<style type="text/css">
	.st0{fill:#FFFFFF;}
</style>
<g>
	<path class="st0" d="M657,341.7c-0.2,1.8-0.4,3.6-0.6,5.5c-4.1,68.4-27.2,129.8-69.3,183.9c-35.2,45.2-79.5,78.8-132.4,101
		c-6.8,2.8-13.7,5.4-20.6,7.8c-4.5,1.6-9.3,1.5-13.8-0.2c-5.8-2.1-9.6-7.7-9.6-14.4c-0.1-7.1,0-14.1,0.1-21.2
		c0.1-24.9,0.4-49.7,0.1-74.6c-0.1-14.6-3.2-28.7-10.5-41.6c-1.5-2.6-3.2-5.2-5.1-7.6c-1.8-2.3-4-4.4-6.1-6.8
		c2.4-0.3,4.7-0.6,7.1-0.9c20.3-2.7,40.3-6.9,59.3-14.8c19.7-8.2,37-19.8,50.6-36.3c11.8-14.3,19.6-30.5,24.7-48.2
		c3.6-12.4,5.9-25.1,6.7-37.9c0.6-9.6,1.2-19.3,0.9-29c-0.8-30.9-11.4-58.2-31.9-81.5c-1.2-1.4-1.5-2.4-0.8-4.2
		c4.9-13.7,6.4-27.9,5.6-42.4c-0.8-14.1-4.1-27.7-9.1-40.9c-0.4-1.1-0.9-1.6-2.1-1.8c-6.3-1-12.6-0.3-18.8,0.9
		c-14.7,2.9-28.5,8.7-41.5,15.9c-9.2,5.1-18.1,10.8-27.1,16.3c-1,0.6-1.8,0.7-3,0.4c-15.3-4.2-30.8-7.1-46.5-8.8
		c-16.3-1.8-32.6-2.3-49-1.5c-16.8,0.8-33.5,2.9-50,6.5c-5.3,1.2-10.5,2.5-15.7,3.9c-1.1,0.3-1.9,0.1-2.8-0.5
		c-13.9-9.3-28.3-17.7-43.8-24.2c-9.5-4-19.3-7.2-29.5-8.7c-4.8-0.7-9.7-1-14.5-0.1c-0.6,0.1-1.3,0.7-1.5,1.2
		c-6.7,16.8-10.1,34.3-9.5,52.4c0.4,11.1,2.2,22,6.1,32.4c0.5,1.2-0.1,1.8-0.7,2.5c-8.4,9.4-15.3,19.8-20.6,31.3
		c-6.9,14.8-10.8,30.4-11.5,46.6c-1.1,24,0.9,47.6,7.4,70.8c5.5,19.4,14.4,37.1,27.9,52.2c13.6,15.1,30.2,25.7,49,33.3
		c13.4,5.4,27.2,9.1,41.4,11.5c7.3,1.2,14.6,2.2,21.9,3.3c0.4,0.1,0.8,0.2,1.3,0.3c-1.8,1.9-3.6,3.7-5.3,5.7
		c-7.6,9.2-11.8,19.9-14.2,31.5c-0.3,1.6-0.8,3.2-0.8,4.9c-0.1,1.6-0.9,2.2-2.2,2.7c-12.7,5.3-25.8,8.4-39.6,7.6
		c-16-0.9-29.6-7.1-41-18.3c-4.8-4.8-8.9-10.1-12.4-15.9c-7.1-11.4-15.8-21.3-27.4-28.3c-10-6-20.8-8.2-32.3-6
		c-0.9,0.2-1.8,0.4-2.6,0.7c-4.1,1.6-5.3,4.5-2.8,8.2c1.5,2.3,3.5,4.3,5.6,6.1c1.9,1.7,4,3.3,6.2,4.5c6.5,3.5,11.6,8.5,16,14.3
		c8.6,11.2,15.8,23.1,21.1,36.3c6.9,17.2,19.7,28.2,37,34.2c12.8,4.5,26,5.6,39.5,5.3c10.9-0.3,21.6-1.6,32.3-3.5c0.1,0,0.3,0,0.6,0
		c0,0.6,0,1.1,0,1.6c0.1,19.5,0.3,38.9,0.4,58.4c0,5.7-1.5,10.7-6.3,14.1c-4.2,3-9.1,3.8-13.9,2.8c-5.1-1.1-10-2.9-14.9-4.7
		C166.4,618.2,126.5,592,92.5,557c-31.2-32.2-54.9-69.3-70.9-111.1c-8.4-21.8-14.3-44.2-17.8-67.3c-1.8-12.2-3-24.5-3.5-36.8
		c0-0.3-0.2-0.7-0.3-1c0-8.1,0-16.3,0-24.4c0.1-0.4,0.3-0.8,0.3-1.2c0.8-19.9,3.3-39.5,7.7-58.8c12.1-53.6,36.2-101.1,72-142.7
		c26.7-30.9,58.1-56,94.1-75.2C216.4,16,261.5,3.4,309.3,0.6c2-0.1,4.1-0.4,6.1-0.6c8.7,0,17.3,0,26,0c0.3,0.1,0.6,0.3,1,0.3
		c7.1,0.5,14.2,0.9,21.3,1.6c16.9,1.6,33.5,4.8,49.9,9.2c47,12.6,89.3,34.6,126.5,66c40.7,34.3,71.4,76.1,91.9,125.2
		c14.3,34.3,22.5,70,24.6,107.1c0.1,2.4,0.4,4.8,0.6,7.2C657,325,657,333.3,657,341.7z"/>
</g>
</svg>
