<?xml version="1.0" encoding="utf-8"?>
<!-- Generator: Adobe Illustrator 23.0.1, SVG Export Plug-In . SVG Version: 6.00 Build 0)  -->
<svg version="1.1" id="Layer_1" xmlns="http://www.w3.org/2000/svg" xmlns:xlink="http://www.w3.org/1999/xlink" x="0px" y="0px"
	 viewBox="0 0 756 585" style="enable-background:new 0 0 756 585;" xml:space="preserve">
<style type="text/css">
	.st0{fill:#FFFFFF;}
</style>
<g>
	<path class="st0" d="M723.5,65h-691C14.6,65,0,50.4,0,32.5v0C0,14.6,14.6,0,32.5,0h691C741.4,0,756,14.6,756,32.5v0
		C756,50.4,741.4,65,723.5,65z"/>
</g>
<g>
	<path class="st0" d="M723.5,325h-691C14.6,325,0,310.4,0,292.5v0C0,274.6,14.6,260,32.5,260h691c17.9,0,32.5,14.6,32.5,32.5v0
		C756,310.4,741.4,325,723.5,325z"/>
</g>
<g>
	<path class="st0" d="M723.5,585h-691C14.6,585,0,570.4,0,552.5v0C0,534.6,14.6,520,32.5,520h691c17.9,0,32.5,14.6,32.5,32.5v0
		C756,570.4,741.4,585,723.5,585z"/>
</g>
</svg>
