<?xml version="1.0" encoding="utf-8"?>
<!-- Generator: Adobe Illustrator 23.0.1, SVG Export Plug-In . SVG Version: 6.00 Build 0)  -->
<svg version="1.1" id="Layer_1" xmlns="http://www.w3.org/2000/svg" xmlns:xlink="http://www.w3.org/1999/xlink" x="0px" y="0px"
	 viewBox="0 0 342.3 335.4" style="enable-background:new 0 0 342.3 335.4;" xml:space="preserve">
<style type="text/css">
	.st0{enable-background:new    ;}
	.st1{fill:#FAF88C;} <!-- YELLOW  F3B55D #F3F191-->
	.st2{fill:#FAFAFF;} <!-- WHITE -->
	.st3{fill:#008A64;} <!-- GREEN -->
	.st4{fill:#2B50AA;} <!-- BLUE -->
	.st5{fill:#A2223A;} <!-- RED -->
	.st6{clip-path:url(#SVGID_2_);}
	.st7{fill:#F29640;} <!-- ORANGE #F1A841 -->
</style>
<polyline points="0,245.4 0.1,148.2 25,128.7 0.1,109.2 0.1,22.2 257.1,0.2 342.1,67.2 342.1,153.2 342.1,190.2 319.2,208.2 
	342.3,226.1 342.1,313.2 86.1,335.2 0.1,268.2 "/>
<g>
	<g class="st0">
		<g>
			<polygon points="170.5,253.3 170.6,166.5 199.4,188.8 199.3,275.7 			"/>
			<polygon points="174.5,251.4 174.6,174.6 195.4,190.8 195.3,267.5 			"/>
		</g>
		<g>
			<polygon points="284.7,181.4 199.4,188.8 170.6,166.5 255.9,159 			"/>
			<polygon points="181.1,169.6 254.7,163.1 274.2,178.3 200.6,184.7 			"/>
		</g>
		<g>
			<polygon points="199.3,275.7 199.4,188.8 284.7,181.4 284.6,268.2 			"/>
			<polygon points="203.4,192.5 280.7,185.7 280.6,264.6 203.3,271.3 			"/>
		</g>
		<g>
			<polygon points="114.1,283.2 114.2,196.3 199.4,188.8 199.3,275.7 			"/>
			<polygon points="118.2,200 195.4,193.2 195.3,272 118.1,278.8 			"/>
		</g>
		<g>
			<polygon points="85.3,260.8 85.4,173.9 114.2,196.3 114.1,283.2 			"/>
			<polygon points="89.3,258.8 89.4,182.1 110.2,198.3 110.1,275 			"/>
		</g>
		<g>
			<polygon points="199.4,188.8 114.2,196.3 85.4,173.9 170.6,166.5 			"/>
			<polygon points="95.9,177 169.4,170.6 188.9,185.7 115.4,192.2 			"/>
		</g>
	</g>
	<g class="st0">
		<g>
			<polygon points="199.3,275.7 199.4,188.8 228.2,211.2 228.1,298.1 			"/>
			<polygon points="203.3,273.7 203.4,197 224.2,213.2 224.1,289.9 			"/>
		</g>
		<g>
			<polygon points="313.5,203.8 228.2,211.2 199.4,188.8 284.7,181.4 			"/>
			<polygon points="209.9,191.9 283.5,185.5 303,200.7 229.4,207.1 			"/>
		</g>
		<g>
			<polygon points="228.1,298.1 228.2,211.2 313.5,203.8 313.4,290.6 			"/>
			<polygon points="232.2,214.9 309.5,208.1 309.4,287 232.1,293.7 			"/>
		</g>
		<g>
			<polygon points="256.9,320.5 257,233.6 342.3,226.1 342.2,313 			"/>
			<polygon class="st1" points="261,237.3 338.3,230.5 338.2,309.3 260.9,316.1 			"/>
		</g>
		<g>
			<polygon points="228.1,298.1 228.2,211.2 257,233.6 256.9,320.5 			"/>
			<polygon points="232.1,296.1 232.2,219.4 253,235.6 252.9,312.3 			"/>
		</g>
		<g>
			<polygon points="342.3,226.1 257,233.6 228.2,211.2 313.5,203.8 			"/>
			<polygon points="238.7,214.3 312.3,207.9 331.8,223.1 258.2,229.5 			"/>
		</g>
	</g>
	<g class="st0">
		<g>
			<polygon points="0,268.2 0.1,181.4 28.9,203.8 28.8,290.6 			"/>
			<polygon class="st2" points="4,266.3 4.1,189.5 24.9,205.7 24.8,282.4 			"/>
		</g>
		<g>
			<polygon points="28.8,290.6 28.9,203.8 114.2,196.3 114.1,283.2 			"/>
			<polygon points="32.9,207.4 110.2,200.7 110.1,279.5 32.8,286.2 			"/>
		</g>
		<g>
			<polygon points="114.2,196.3 28.9,203.8 0.1,181.4 85.4,173.9 			"/>
			<polygon points="10.6,184.5 84.2,178 103.7,193.2 30.1,199.6 			"/>
		</g>
	</g>
	<g class="st0">
		<g>
			<polygon points="114.1,283.2 114.2,196.3 143,218.7 142.9,305.5 			"/>
			<polygon points="118.1,281.2 118.2,204.5 139,220.6 138.9,297.4 			"/>
		</g>
		<g>
			<polygon points="142.9,305.5 143,218.7 228.2,211.2 228.1,298.1 			"/>
			<polygon points="147,222.4 224.2,215.6 224.1,294.4 146.9,301.2 			"/>
		</g>
		<g>
			<polygon points="228.2,211.2 143,218.7 114.2,196.3 199.4,188.8 			"/>
			<polygon points="124.7,199.4 198.2,193 217.7,208.1 144.2,214.6 			"/>
		</g>
	</g>
	<g class="st0">
		<g>
			<polygon points="142.9,305.5 143,218.7 171.7,241.1 171.7,327.9 			"/>
			<polygon points="146.9,303.6 146.9,226.9 167.7,243 167.7,319.8 			"/>
		</g>
		<g>
			<polygon points="171.7,327.9 171.7,241.1 257,233.6 256.9,320.5 			"/>
			<polygon class="st3" points="175.7,244.7 253,238 252.9,316.8 175.7,323.6 			"/>
		</g>
		<g>
			<polygon points="257,233.6 171.7,241.1 143,218.7 228.2,211.2 			"/>
			<polygon points="153.5,221.8 227,215.3 246.5,230.5 173,236.9 			"/>
		</g>
	</g>
	<g class="st0">
		<g>
			<polygon points="28.8,290.6 28.9,203.8 57.7,226.1 57.6,313 			"/>
			<polygon class="st2" points="32.8,288.7 32.9,211.9 53.7,228.1 53.6,304.8 			"/>
		</g>
		<g>
			<polygon points="57.6,313 57.7,226.1 143,218.7 142.9,305.5 			"/>
			<polygon points="61.7,229.8 138.9,223.1 138.9,301.9 61.6,308.6 			"/>
		</g>
		<g>
			<polygon points="143,218.7 57.7,226.1 28.9,203.8 114.2,196.3 			"/>
			<polygon points="39.4,206.9 112.9,200.4 132.5,215.6 58.9,222 			"/>
		</g>
	</g>
	<g class="st0">
		<g>
			<polygon points="57.6,313 57.7,226.1 86.5,248.5 86.4,335.4 			"/>
			<polygon class="st4" points="61.6,311 61.7,234.3 82.5,250.5 82.4,327.2 			"/>
		</g>
		<g>
			<polygon points="86.4,335.4 86.5,248.5 171.7,241.1 171.7,327.9 			"/>
			<polygon class="st5" points="90.5,252.2 167.7,245.4 167.7,324.3 90.4,331 			"/>
		</g>
		<g>
			<polygon points="171.7,241.1 86.5,248.5 57.7,226.1 143,218.7 			"/>
			<polygon points="68.2,229.2 141.7,222.8 161.2,238 87.7,244.4 			"/>
		</g>
	</g>
	<g class="st0">
		<g>
			<polygon points="114.1,205.2 114.2,118.3 143,140.7 142.9,227.5 			"/>
			<polygon points="118.1,203.2 118.2,126.5 139,142.6 138.9,219.4 			"/>
		</g>
		<g>
			<polygon points="142.9,227.5 143,140.7 228.2,133.2 228.1,220.1 			"/>
			<polygon points="147,144.4 224.2,137.6 224.1,216.4 146.9,223.2 			"/>
		</g>
		<g>
			<polygon points="228.2,133.2 143,140.7 114.2,118.3 199.4,110.8 			"/>
			<polygon points="124.7,121.4 198.2,115 217.7,130.1 144.2,136.6 			"/>
		</g>
	</g>
	<g>
		<g>
			<g class="st0">
				<defs>
					<rect id="SVGID_1_" x="0" y="81" class="st0" width="342.3" height="176.4"/>
				</defs>
				<clipPath id="SVGID_2_">
					<use xlink:href="#SVGID_1_"  style="overflow:visible;"/>
				</clipPath>
				<g class="st6">
					<g>
						<g>
							<g>
								<path d="M141.6,106.7l19.5-15.2l-73.6-6.4l-19.5,15.2L141.6,106.7 M86.4,81l85.3,7.5l-28.8,22.4l-85.3-7.5L86.4,81"/>
								<polyline points="87.6,85.1 161.2,91.6 141.6,106.7 68.1,100.3 87.6,85.1 								"/>
								<polyline points="142.9,110.8 228.1,118.3 223.5,121.9 146.9,115.2 146.9,136.1 142.9,135.7 142.9,110.8 								"/>
								<polyline points="146.9,115.2 223.5,121.9 199.3,140.7 146.9,136.1 146.9,115.2 								"/>
								<path d="M226.9,114.2L246.4,99l-73.6-6.4l-19.5,15.2L226.9,114.2 M171.6,88.5l85.3,7.5l-28.8,22.4l-85.3-7.5L171.6,88.5"/>
								<polyline points="172.9,92.6 246.4,99 226.9,114.2 153.4,107.7 172.9,92.6 								"/>
								<polyline points="142.9,110.8 142.9,135.7 138.9,135.4 138.9,119 119.9,133.7 114.1,133.2 142.9,110.8 								"/>
								<polyline points="138.9,119 138.9,135.4 119.9,133.7 138.9,119 								"/>
								<path d="M112.8,129.1l19.5-15.2l-73.5-6.4l-19.5,15.2L112.8,129.1 M57.6,103.4l85.3,7.5l-28.8,22.4l-85.3-7.5L57.6,103.4"/>
								<polyline points="58.8,107.5 132.4,113.9 112.8,129.1 39.3,122.7 58.8,107.5 								"/>
								<path d="M81.4,238.1l-0.1-78.8L4,152.5l0.1,78.8L81.4,238.1 M0,148.1l85.3,7.5l0.1,86.8L0.1,235L0,148.1"/>
								<polyline class="st7" points="4,152.5 81.3,159.3 81.4,238.1 4.1,231.3 4,152.5 								"/>
								<path d="M84,151.5l19.5-15.2L30,129.9l-19.5,15.2L84,151.5 M28.8,125.8l85.3,7.5l-28.8,22.4L0,148.1L28.8,125.8"/>
								<polyline points="30,129.9 103.6,136.3 84,151.5 10.5,145.1 30,129.9 								"/>
								<path d="M317.5,204.4l20.8-16.2l-0.1-76.7l-20.8,16.2L317.5,204.4 M342.2,103.4l0.1,86.8l-28.8,22.4l-0.1-86.8L342.2,103.4"
									/>
								<polyline class="st4" points="338.2,111.5 338.3,188.3 317.5,204.4 317.4,127.7 338.2,111.5 								"/>
								<path d="M312.2,121.6l19.5-15.2l-73.5-6.4l-19.5,15.2L312.2,121.6 M256.9,95.9l85.3,7.5l-28.8,22.4l-85.3-7.5L256.9,95.9"/>
								<polyline points="258.1,100 331.7,106.5 312.2,121.6 238.6,115.2 258.1,100 								"/>
								<path d="M166.6,245.6l-0.1-78.8L89.3,160l0.1,78.8L166.6,245.6 M85.3,155.6l85.3,7.5l0.1,86.8l-85.3-7.5L85.3,155.6"/>
								<polyline class="st5" points="89.3,160 166.5,166.7 166.6,245.6 89.4,238.8 89.3,160 								"/>
								<path d="M169.3,158.9l19.5-15.2l-73.5-6.4l-19.5,15.2L169.3,158.9 M114.1,133.2l5.9,0.5l19,1.7l4,0.3l4,0.4l52.4,4.6
									l-28.8,22.4l-85.3-7.5L114.1,133.2"/>
								<polyline points="115.3,137.3 188.8,143.8 169.3,158.9 95.8,152.5 115.3,137.3 								"/>
								<path d="M288.7,226.8l20.8-16.2l-0.1-76.7l-20.8,16.2L288.7,226.8 M313.4,125.8l0.1,86.8L284.7,235l-0.1-86.8L313.4,125.8"
									/>
								<polyline class="st3" points="309.4,133.9 309.5,210.7 288.7,226.8 288.6,150.1 309.4,133.9 								"/>
								<path d="M283.4,144l19.5-15.2l-73.6-6.4l-19.5,15.2L283.4,144 M228.1,118.3l85.3,7.5l-28.8,22.4l-85.3-7.5l24.2-18.8
									L228.1,118.3"/>
								<polyline points="229.3,122.4 302.9,128.9 283.4,144 209.8,137.6 229.3,122.4 								"/>
								<path d="M259.9,249.2l20.8-16.2l-0.1-76.7l-20.8,16.2L259.9,249.2 M284.6,148.1l0.1,86.8l-28.8,22.4l-0.1-86.8L284.6,148.1"
									/>
								<polyline class="st1" points="280.6,156.3 280.7,233 259.9,249.2 259.8,172.5 280.6,156.3 								"/>
								<path d="M251.9,253l-0.1-78.8l-77.3-6.8l0.1,78.8L251.9,253 M170.5,163.1l85.3,7.5l0.1,86.8l-85.3-7.5L170.5,163.1"/>
								<polyline class="st4" points="174.5,167.4 251.8,174.2 251.9,253 174.6,246.3 174.5,167.4 								"/>
								<path d="M254.6,166.4l19.5-15.2l-73.5-6.4L181,160L254.6,166.4 M199.3,140.7l85.3,7.5l-28.8,22.4l-85.3-7.5L199.3,140.7"/>
								<polyline points="200.5,144.8 274.1,151.2 254.6,166.4 181,160 200.5,144.8 								"/>
							</g>
						</g>
					</g>
				</g>
			</g>
		</g>
	</g>
	<g>
		<g class="st0">
			<g>
				<polygon points="170.5,94.3 170.6,7.5 199.4,29.8 199.3,116.7 				"/>
				<polygon points="174.5,92.4 174.6,15.6 195.4,31.8 195.3,108.5 				"/>
			</g>
			<g>
				<polygon points="284.7,22.4 199.4,29.8 170.6,7.5 255.9,0 				"/>
				<polygon class="st7" points="181.1,10.6 254.7,4.1 274.2,19.3 200.6,25.7 				"/>
			</g>
			<g>
				<polygon points="199.3,116.7 199.4,29.8 284.7,22.4 284.6,109.2 				"/>
				<polygon points="203.4,33.5 280.7,26.7 280.6,105.6 203.3,112.3 				"/>
			</g>
			<g>
				<polygon points="114.1,124.2 114.2,37.3 199.4,29.8 199.3,116.7 				"/>
				<polygon points="118.2,41 195.4,34.2 195.3,113 118.1,119.8 				"/>
			</g>
			<g>
				<polygon points="85.3,101.8 85.4,14.9 114.2,37.3 114.1,124.2 				"/>
				<polygon points="89.3,99.8 89.4,23.1 110.2,39.3 110.1,116 				"/>
			</g>
			<g>
				<polygon points="199.4,29.8 114.2,37.3 85.4,14.9 170.6,7.5 				"/>
				<polygon class="st5" points="95.9,18 169.4,11.6 188.9,26.7 115.4,33.2 				"/>
			</g>
		</g>
		<g class="st0">
			<g>
				<polygon points="199.3,116.7 199.4,29.8 228.2,52.2 228.1,139.1 				"/>
				<polygon points="203.3,114.7 203.4,38 224.2,54.2 224.1,130.9 				"/>
			</g>
			<g>
				<polygon points="313.5,44.8 228.2,52.2 199.4,29.8 284.7,22.4 				"/>
				<polygon class="st4" points="209.9,32.9 283.5,26.5 303,41.7 229.4,48.1 				"/>
			</g>
			<g>
				<polygon points="228.1,139.1 228.2,52.2 313.5,44.8 313.4,131.6 				"/>
				<polygon points="232.2,55.9 309.5,49.1 309.4,128 232.1,134.7 				"/>
			</g>
			<g>
				<polygon points="256.9,161.5 257,74.6 342.3,67.1 342.2,154 				"/>
				<polygon class="st3" points="261,78.3 338.3,71.5 338.2,150.3 260.9,157.1 				"/>
			</g>
			<g>
				<polygon points="228.1,139.1 228.2,52.2 257,74.6 256.9,161.5 				"/>
				<polygon points="232.1,137.1 232.2,60.4 253,76.6 252.9,153.3 				"/>
			</g>
			<g>
				<polygon points="342.3,67.1 257,74.6 228.2,52.2 313.5,44.8 				"/>
				<polygon class="st2" points="238.7,55.3 312.3,48.9 331.8,64.1 258.2,70.5 				"/>
			</g>
		</g>
		<g class="st0">
			<g>
				<polygon points="0,109.2 0.1,22.4 28.9,44.8 28.8,131.6 				"/>
				<polygon class="st1" points="4,107.3 4.1,30.5 24.9,46.7 24.8,123.4 				"/>
			</g>
			<g>
				<polygon points="28.8,131.6 28.9,44.8 114.2,37.3 114.1,124.2 				"/>
				<polygon points="32.9,48.4 110.2,41.7 110.1,120.5 32.8,127.2 				"/>
			</g>
			<g>
				<polygon points="114.2,37.3 28.9,44.8 0.1,22.4 85.4,14.9 				"/>
				<polygon class="st7" points="10.6,25.5 84.2,19 103.7,34.2 30.1,40.6 				"/>
			</g>
		</g>
		<g class="st0">
			<g>
				<polygon points="114.1,124.2 114.2,37.3 143,59.7 142.9,146.5 				"/>
				<polygon points="118.1,122.2 118.2,45.5 139,61.6 138.9,138.4 				"/>
			</g>
			<g>
				<polygon points="142.9,146.5 143,59.7 228.2,52.2 228.1,139.1 				"/>
				<polygon points="147,63.4 224.2,56.6 224.1,135.4 146.9,142.2 				"/>
			</g>
			<g>
				<polygon points="228.2,52.2 143,59.7 114.2,37.3 199.4,29.8 				"/>
				<polygon class="st2" points="124.7,40.4 198.2,34 217.7,49.1 144.2,55.6 				"/>
			</g>
		</g>
		<g class="st0">
			<g>
				<polygon points="142.9,146.5 143,59.7 171.7,82.1 171.7,168.9 				"/>
				<polygon points="146.9,144.6 146.9,67.9 167.7,84 167.7,160.8 				"/>
			</g>
			<g>
				<polygon points="171.7,168.9 171.7,82.1 257,74.6 256.9,161.5 				"/>
				<polygon class="st3" points="175.7,85.7 253,79 252.9,157.8 175.7,164.6 				"/>
			</g>
			<g>
				<polygon points="257,74.6 171.7,82.1 143,59.7 228.2,52.2 				"/>
				<polygon class="st7" points="153.5,62.8 227,56.3 246.5,71.5 173,77.9 				"/>
			</g>
		</g>
		<g class="st0">
			<g>
				<polygon points="28.8,131.6 28.9,44.8 57.7,67.1 57.6,154 				"/>
				<polygon class="st7" points="32.8,129.7 32.9,52.9 53.7,69.1 53.6,145.8 				"/>
			</g>
			<g>
				<polygon points="57.6,154 57.7,67.1 143,59.7 142.9,146.5 				"/>
				<polygon points="61.7,70.8 138.9,64.1 138.9,142.9 61.6,149.6 				"/>
			</g>
			<g>
				<polygon points="143,59.7 57.7,67.1 28.9,44.8 114.2,37.3 				"/>
				<polygon class="st2" points="39.4,47.9 112.9,41.4 132.5,56.6 58.9,63 				"/>
			</g>
		</g>
		<g class="st0">
			<g>
				<polygon points="57.6,154 57.7,67.1 86.5,89.5 86.4,176.4 				"/>
				<polygon class="st5" points="61.6,152 61.7,75.3 82.5,91.5 82.4,168.2 				"/>
			</g>
			<g>
				<polygon points="86.4,176.4 86.5,89.5 171.7,82.1 171.7,168.9 				"/>
				<polygon class="st3" points="90.5,93.2 167.7,86.4 167.7,165.3 90.4,172 				"/>
			</g>
			<g>
				<polygon points="171.7,82.1 86.5,89.5 57.7,67.1 143,59.7 				"/>
				<polygon class="st1" points="68.2,70.2 141.7,63.8 161.2,79 87.7,85.4 				"/>
			</g>
		</g>
	</g>
</g>
</svg>
