<?xml version="1.0" encoding="utf-8"?>
<!-- Generator: Adobe Illustrator 23.0.1, SVG Export Plug-In . SVG Version: 6.00 Build 0)  -->
<svg version="1.1" id="Layer_1" xmlns="http://www.w3.org/2000/svg" xmlns:xlink="http://www.w3.org/1999/xlink" x="0px" y="0px"
	 viewBox="0 0 342.3 339.4" style="enable-background:new 0 0 342.3 339.4;" xml:space="preserve">
<style type="text/css">
	.st0{enable-background:new    ;}
	.st1{fill:#FAF88C;}
	.st2{fill:#FAFAFF;} <!-- WHITE -->
	.st3{fill:#008A64;}
	.st4{fill:#2B50AA;}
	.st5{fill:#A2223A;}
	.st6{fill:#F29640;}
	.st7{fill:#333BDB;}
</style>
<polygon class="st2" points="342.1,317.2 342.1,67.2 257.1,0.2 0.1,22.2 0.1,272.2 87.1,339.2 "/>
<g class="st0">
	<g>
		<polygon class="st2" points="256.9,324.5 257,237.6 342.3,230.1 342.2,317 		"/>
		<polygon class="st1" points="261,241.3 338.3,234.5 338.2,313.3 260.9,320.1 		"/>
	</g>
</g>
<g class="st0">
	<g>
		<polygon class="st2" points="0,272.2 0.1,185.4 28.9,207.8 28.8,294.6 		"/>
		<polygon class="st2" points="4,270.3 4.1,193.5 24.9,209.7 24.8,286.4 		"/>
	</g>
</g>
<g class="st0">
	<g>
		<polygon class="st2" points="171.7,331.9 171.7,245.1 257,237.6 256.9,324.5 		"/>
		<polygon class="st3" points="175.7,248.7 253,242 252.9,320.8 175.7,327.6 		"/>
	</g>
</g>
<g class="st0">
	<g>
		<polygon class="st2" points="28.8,294.6 28.9,207.8 57.7,230.1 57.6,317 		"/>
		<polygon class="st2" points="32.8,292.7 32.9,215.9 53.7,232.1 53.6,308.8 		"/>
	</g>
</g>
<g class="st0">
	<g>
		<polygon class="st2" points="57.6,317 57.7,230.1 86.5,252.5 86.4,339.4 		"/>
		<polygon class="st4" points="61.6,315 61.7,238.3 82.5,254.5 82.4,331.2 		"/>
	</g>
	<g>
		<polygon class="st2" points="86.4,339.4 86.5,252.5 171.7,245.1 171.7,331.9 		"/>
		<polygon class="st5" points="90.5,256.2 167.7,249.4 167.7,328.3 90.4,335 		"/>
	</g>
</g>
<g class="st0">
	<g>
		<polygon class="st2" points="256.9,246.5 257,159.6 342.3,152.1 342.2,239 		"/>
		<polygon class="st6" points="261,163.3 338.3,156.5 338.2,235.3 260.9,242.1 		"/>
	</g>
</g>
<g class="st0">
	<g>
		<polygon class="st2" points="0,194.2 0.1,107.4 28.9,129.8 28.8,216.6 		"/>
		<polygon class="st4" points="4,192.3 4.1,115.5 24.9,131.7 24.8,208.4 		"/>
	</g>
</g>
<g class="st0">
	<g>
		<polygon class="st2" points="171.7,253.9 171.7,167.1 257,159.6 256.9,246.5 		"/>
		<polygon class="st5" points="175.7,170.7 253,164 252.9,242.8 175.7,249.6 		"/>
	</g>
</g>
<g class="st0">
	<g>
		<polygon class="st2" points="28.8,216.6 28.9,129.8 57.7,152.1 57.6,239 		"/>
		<polygon class="st3" points="32.8,214.7 32.9,137.9 53.7,154.1 53.6,230.8 		"/>
	</g>
</g>
<g class="st0">
	<g>
		<polygon class="st2" points="57.6,239 57.7,152.1 86.5,174.5 86.4,261.4 		"/>
		<polygon class="st1" points="61.6,237 61.7,160.3 82.5,176.5 82.4,253.2 		"/>
	</g>
	<g>
		<polygon class="st2" points="86.4,261.4 86.5,174.5 171.7,167.1 171.7,253.9 		"/>
		<polygon class="st4" points="90.5,178.2 167.7,171.4 167.7,250.3 90.4,257 		"/>
	</g>
</g>
<g class="st0">
	<g>
		<polygon class="st2" points="284.7,22.4 199.4,29.8 170.6,7.5 255.9,0 		"/>
		<polygon class="st6" points="181.1,10.6 254.7,4.1 274.2,19.3 200.6,25.7 		"/>
	</g>
	<g>
		<polygon class="st2" points="199.4,29.8 114.2,37.3 85.4,14.9 170.6,7.5 		"/>
		<polygon class="st5" points="95.9,18 169.4,11.6 188.9,26.7 115.4,33.2 		"/>
	</g>
</g>
<g class="st0">
	<g>
		<polygon class="st2" points="313.5,44.8 228.2,52.2 199.4,29.8 284.7,22.4 		"/>
		<polygon class="st7" points="209.9,32.9 283.5,26.5 303,41.7 229.4,48.1 		"/>
	</g>
	<g>
		<polygon class="st2" points="256.9,161.5 257,74.6 342.3,67.1 342.2,154 		"/>
		<polygon class="st3" points="261,78.3 338.3,71.5 338.2,150.3 260.9,157.1 		"/>
	</g>
	<g>
		<polygon class="st2" points="342.3,67.1 257,74.6 228.2,52.2 313.5,44.8 		"/>
		<polygon class="st2" points="238.7,55.3 312.3,48.9 331.8,64.1 258.2,70.5 		"/>
	</g>
</g>
<g class="st0">
	<g>
		<polygon class="st2" points="0,109.2 0.1,22.4 28.9,44.8 28.8,131.6 		"/>
		<polygon class="st1" points="4,107.3 4.1,30.5 24.9,46.7 24.8,123.4 		"/>
	</g>
	<g>
		<polygon class="st2" points="114.2,37.3 28.9,44.8 0.1,22.4 85.4,14.9 		"/>
		<polygon class="st6" points="10.6,25.5 84.2,19 103.7,34.2 30.1,40.6 		"/>
	</g>
</g>
<g class="st0">
	<g>
		<polygon class="st2" points="228.2,52.2 143,59.7 114.2,37.3 199.4,29.8 		"/>
		<polygon class="st2" points="124.7,40.4 198.2,34 217.7,49.1 144.2,55.6 		"/>
	</g>
</g>
<g class="st0">
	<g>
		<polygon class="st2" points="171.7,168.9 171.7,82.1 257,74.6 256.9,161.5 		"/>
		<polygon class="st3" points="175.7,85.7 253,79 252.9,157.8 175.7,164.6 		"/>
	</g>
	<g>
		<polygon class="st2" points="257,74.6 171.7,82.1 143,59.7 228.2,52.2 		"/>
		<polygon class="st6" points="153.5,62.8 227,56.3 246.5,71.5 173,77.9 		"/>
	</g>
</g>
<g class="st0">
	<g>
		<polygon class="st2" points="28.8,131.6 28.9,44.8 57.7,67.1 57.6,154 		"/>
		<polygon class="st6" points="32.8,129.7 32.9,52.9 53.7,69.1 53.6,145.8 		"/>
	</g>
	<g>
		<polygon class="st2" points="143,59.7 57.7,67.1 28.9,44.8 114.2,37.3 		"/>
		<polygon class="st2" points="39.4,47.9 112.9,41.4 132.5,56.6 58.9,63 		"/>
	</g>
</g>
<g class="st0">
	<g>
		<polygon class="st2" points="57.6,154 57.7,67.1 86.5,89.5 86.4,176.4 		"/>
		<polygon class="st5" points="61.6,152 61.7,75.3 82.5,91.5 82.4,168.2 		"/>
	</g>
	<g>
		<polygon class="st2" points="86.4,176.4 86.5,89.5 171.7,82.1 171.7,168.9 		"/>
		<polygon class="st3" points="90.5,93.2 167.7,86.4 167.7,165.3 90.4,172 		"/>
	</g>
	<g>
		<polygon class="st2" points="171.7,82.1 86.5,89.5 57.7,67.1 143,59.7 		"/>
		<polygon class="st1" points="68.2,70.2 141.7,63.8 161.2,79 87.7,85.4 		"/>
	</g>
</g>
</svg>
